<?xml version="1.0" encoding="utf-8"?>
<!-- Generator: Adobe Illustrator 21.0.2, SVG Export Plug-In . SVG Version: 6.00 Build 0)  -->
<svg version="1.1" id="Layer_1" xmlns="http://www.w3.org/2000/svg" xmlns:xlink="http://www.w3.org/1999/xlink" x="0px" y="0px"
    viewBox="300 0 1048.66 362.05" style="enable-background:new 0 0 1600 362.05;" xml:space="preserve">
<title>qiwa-logo-color-ar</title>
<path style="fill:#FFFFFF;" d="M641.96,139v0.4c-0.281,2.858-0.414,5.728-0.4,8.6v35.9c-0.103,45.735,36.889,82.893,82.624,82.996
   c18.675,0.042,36.815-6.229,51.476-17.796c3.031-2.413,5.904-5.018,8.6-7.8c14.852-15.381,23.168-35.918,23.2-57.3v-35.9
   c-0.01-24.124,19.538-43.688,43.662-43.698c9.939-0.004,19.583,3.382,27.338,9.598c4.34-12.524,10.988-24.124,19.6-34.2
   c-29.848-20.692-69.716-19.433-98.2,3.1c-3.074,2.362-5.95,4.97-8.6,7.8c-14.852,15.381-23.168,35.918-23.2,57.3v35.9
   c0,24.135-19.565,43.7-43.7,43.7s-43.7-19.565-43.7-43.7V148c0.006-1.604,0.107-3.207,0.3-4.8l0.2-2.2l0,0l0.2-3
   c0.662-5.763,2.284-11.374,4.8-16.6c1.767-3.807,4.019-7.37,6.7-10.6c2.605-3.125,5.557-5.943,8.8-8.4c0.4-0.3,0.7-0.6,1.1-0.9
   l0.2-0.2c0.852-0.654,1.565-1.469,2.1-2.4l0.1-0.2c0.1-0.1,0.2-0.3,0.3-0.4c0.393-0.599,0.634-1.286,0.7-2v-0.4
   c-0.168-2.429-0.886-4.789-2.1-6.9l-0.1-0.2c-2.502-4.163-5.718-7.852-9.5-10.9l-0.9-0.7l0,0l-0.3-0.5l0,0c-0.4-0.3-0.8-0.5-1.2-0.8
   c-5.6-3.4-10.8-3.4-16.5-0.1c-3.155,1.951-5.989,4.38-8.4,7.2c-9.9,10.1-22.2,27.7-25.1,55.2L641.96,139z"/>
<path style="fill:#FFFFFF;" d="M879.36,293.9c-8.907,22.39-34.277,33.32-56.667,24.413c-5.214-2.074-9.978-5.134-14.033-9.013
   c-0.9-0.8-1.7-1.5-2.4-2c-0.835-0.583-1.742-1.054-2.7-1.4c-1.18-0.485-2.496-0.521-3.7-0.1c-0.216,0.137-0.452,0.238-0.7,0.3
   c-1.28,0.834-2.515,1.735-3.7,2.7c-2.204,1.819-4.245,3.827-6.1,6c-2.836,3.261-5.316,6.814-7.4,10.6c-0.2,0.4-0.5,0.8-0.7,1.3
   c-1.8,5.6,1.1,10.8,3,13.4l0.4,0.7c0.993,1.107,2.062,2.143,3.2,3.1c0.319,0.244,0.62,0.512,0.9,0.8c26.5,22.1,62.9,16.3,77.3,12.7
   c2.212-0.467,4.385-1.102,6.5-1.9l0.6-0.2c1.533-0.513,3.036-1.114,4.5-1.8l0.8-0.3c0.389-0.222,0.789-0.422,1.2-0.6l0.3-0.2
   c12.176-5.776,22.573-14.722,30.1-25.9c7.6-11.2,11.7-25.5,11.7-41.5v-26c-6.4-3-11.5-6.1-19.2-15.8c-7.2,7.6-12.6,11.4-20,15v13.9
   C882.52,272.2,881.96,287.5,879.36,293.9z"/>
<path style="fill:#FFFFFF;" d="M975.96,16.5v30.1h31.7c8.9-0.4,14.1-6.1,14.1-15.7V0.8h-31.7C981.16,1.2,975.96,6.9,975.96,16.5z"/>
<path style="fill:#FFFFFF;" d="M922.16,16.5v30.1h31.7c8.9-0.4,14.1-6.1,14.1-15.7V0.8h-31.7C927.26,1.2,922.16,6.9,922.16,16.5z"/>
<path style="fill:#FFFFFF;" d="M965.52,60.2c-18.587-0.016-36.632,6.257-51.2,17.8c-3.074,2.362-5.95,4.97-8.6,7.8
   c-14.852,15.381-23.168,35.918-23.2,57.3V179c0.01,24.124-19.538,43.688-43.662,43.698c-9.939,0.004-19.583-3.382-27.338-9.598
   c-4.34,12.524-10.988,24.124-19.6,34.2c29.848,20.692,69.716,19.433,98.2-3.1c3.031-2.413,5.904-5.018,8.6-7.8l0,0
   c14.852-15.381,23.168-35.918,23.2-57.3v-36c0-24.135,19.565-43.7,43.7-43.7s43.7,19.565,43.7,43.7V179
   c0.01,24.124-19.538,43.688-43.662,43.698c-9.939,0.004-19.583-3.382-27.338-9.598c-4.177-3.214-8.09-6.759-11.7-10.6
   c0,0-3.2,17.6-18.9,35.8c3.459,3.246,7.134,6.252,11,9c13.791,9.6,30.197,14.731,47,14.7c45.801-0.055,82.9-37.199,82.9-83v-35.9
   C1048.395,97.331,1011.289,60.315,965.52,60.2z"/>
<path style="fill:#FFFFFF;" d="M674.16,55.4l-8-8c-0.4,0-0.7,0.1-1.1,0.1h-1.1c-3.311,0.041-6.6-0.535-9.7-1.7
   c-2.695-1.097-5.118-2.77-7.1-4.9c-1.951-2.203-3.417-4.793-4.3-7.6c-1.031-3.129-1.538-6.406-1.5-9.7
   c-0.038-3.294,0.469-6.571,1.5-9.7c0.884-2.747,2.351-5.271,4.3-7.4c1.961-2.13,4.392-3.774,7.1-4.8
   c6.234-2.267,13.066-2.267,19.3,0c2.678,1.028,5.076,2.672,7,4.8c1.908,2.159,3.369,4.674,4.3,7.4c1.031,3.094,1.538,6.339,1.5,9.6
   c0.008,2.214-0.193,4.424-0.6,6.6c-0.394,2.049-1.067,4.034-2,5.9c-0.923,1.849-2.139,3.538-3.6,5c-1.555,1.565-3.343,2.881-5.3,3.9
   l10.4,10.5H674.16z M663.96,7.3c-2.069-0.065-4.114,0.455-5.9,1.5c-1.608,0.942-2.977,2.243-4,3.8c-1.045,1.632-1.822,3.422-2.3,5.3
   c-0.933,3.946-0.933,8.054,0,12c0.435,1.893,1.214,3.69,2.3,5.3c1.027,1.528,2.397,2.795,4,3.7c1.814,0.964,3.846,1.446,5.9,1.4
   c2.086,0.047,4.15-0.435,6-1.4c1.608-0.942,2.977-2.243,4-3.8c1.037-1.625,1.781-3.419,2.2-5.3c0.933-3.946,0.933-8.054,0-12
   c-0.426-1.848-1.17-3.608-2.2-5.2c-1.027-1.528-2.397-2.795-4-3.7C668.16,7.789,666.074,7.233,663.96,7.3z"/>
<path style="fill:#FFFFFF;" d="M696.52,0.9h9.2v45.9h-9.2V0.9z"/>
<path style="fill:#FFFFFF;" d="M713.36,0.9h9.7l8.46,36.7h0.1l7.8-36.7h12.5l8.1,36.7h0.1l8.6-36.7h8.9l-12,45.9h-11.8l-8.16-36.7
   h-0.14l-8.1,36.7h-11.9L713.36,0.9z"/>
<path style="fill:#FFFFFF;" d="M796.86,0.9h10.4l18,45.9h-10.2l-3.9-10.5h-18.64l-4,10.5h-9.5L796.86,0.9z M801.96,10.1h-0.1
   l-6.6,18.9h13.4L801.96,10.1z"/>
<text x="500" y="360" fill="#ffffff" font-size="100px" font-family="sans-serif">BETA</text>
</svg>
